<?xml version="1.0" encoding="UTF-8"?>
<svg id="Capa_2" data-name="Capa 2" xmlns="http://www.w3.org/2000/svg" viewBox="0 0 388.43 292.81">
  <defs>
    <style>
      .cls-1 {
        fill: #fff;
        stroke: #1d1d1b;
        stroke-miterlimit: 10;
      }
    </style>
  </defs>
  <g id="Capa_1-2" data-name="Capa 1">
    <path class="cls-1" d="m358.15,292.31H25.09c-2.71-31.3-5.45-62.6-8.11-93.91-1.49-17.53-2.83-35.06-4.29-52.59-3.11-37.28-6.22-74.55-9.42-111.82-.73-8.44-1.83-16.84-2.77-25.27V.5c129.12,0,258.24,0,387.37,0-.65,5.07-1.43,10.12-1.93,15.2-2.22,22.6-4.28,45.22-6.57,67.81-2.87,28.35-5.94,56.67-8.86,85.01-1.94,18.84-3.77,37.69-5.65,56.54-2.24,22.42-4.47,44.83-6.71,67.25Zm-167.61-111.51c3.5-7.59,6.79-14.49,9.8-21.51.45-1.05-.07-2.94-.8-4-11.3-16.48-23.28-32.52-33.83-49.47-5.33-8.56-11.36-11.74-21.05-10.75-4.45.45-6.56,1.72-8.16,5.8-3.2,8.17-6.99,16.1-11.01,25.19-4.21-9.8-7.89-18.53-11.75-27.18-.61-1.37-2.01-3.38-3.09-3.4-10.7-.25-21.4-.15-32.34-.15v98.75h21.62v-63.92c5.02,8.61,9.04,17.39,12.9,26.24.43.99.25,2.38.01,3.52-4.72,22.88-9.5,45.74-14.24,68.61-1.57,7.58-3.07,15.18-4.66,23.1,5.61,0,10.54-.3,15.42.1,3.72.3,5.2-1.14,5.76-4.56,1.68-10.27,3.46-20.52,5.25-30.77,1.18-6.73,2.44-13.45,3.67-20.17,4.28,17.19,7.48,34.25,10.88,51.26.29,1.46,1.85,3.75,2.89,3.79,8.08.32,16.17.17,24.7.17-5.42-24.55-10.65-48.19-15.84-71.84-1.68-7.66-5.18-15.57-4.32-22.95.99-8.55,5.88-16.64,9.38-25.72,13.32,17.12,25.87,33.24,38.81,49.88Zm114.22-85.5c-10.84,0-21.22-.1-31.59.14-1.2.03-2.84,1.68-3.45,2.98-2.49,5.24-4.63,10.64-6.94,15.97-1.56,3.59-3.17,7.15-5.15,11.59-4-9.12-7.48-17.08-10.98-25.04-3.04-6.9-11.33-8.25-16.64-2.62-7.5,7.96-14.95,15.98-22.37,24.01-4.95,5.35-9.81,10.78-14.76,16.23,4.08,5.8,7.89,11.21,11.93,16.94,8.97-8.21,17.6-16.11,26.68-24.42,3.25,8.24,6.27,15.64,9.05,23.14.61,1.65.78,3.73.4,5.45-4.17,19.17-8.52,38.31-12.76,57.47-2.48,11.23-4.85,22.48-7.39,34.31,7.99,0,15.32-.17,22.63.08,3.25.11,4.52-1.08,5.06-4.15,2.03-11.43,4.19-22.84,6.38-34.24,1.08-5.64,2.32-11.24,3.48-16.86,3.9,16.81,6.78,33.45,9.81,50.05.33,1.81,1.46,4.88,2.4,4.95,6.15.45,12.35.23,18.78.23-6.31-30.57-12.48-60.46-18.63-90.36-.31-1.49-.97-3.29-.45-4.5,3.86-8.99,7.98-17.86,12.01-26.77.34.07.68.14,1.02.21v63.96h21.47v-98.74Zm-27.38-32.7c-1.29-3.16-2.61-8.98-5.74-13.56-7.36-10.77-20.26-10.81-28.52-.75-8.11,9.88-7.39,26,1.57,35.16,7.63,7.79,18.4,7.61,25.62-.53,4.47-5.04,6.4-11.11,7.07-20.32Zm-131.66,2.33c.46-.21.92-.43,1.38-.64-2.56-5.61-4.27-11.86-7.87-16.7-6.39-8.6-17.44-8.86-25.18-1.62-10.47,9.8-10.42,28.45.1,38.24,7,6.51,16.54,6.61,23.56.08,5.58-5.19,7.85-11.85,8-19.35Z"/>
  </g>
</svg>