<?xml version="1.0" encoding="UTF-8"?>
<svg id="Capa_2" data-name="Capa 2" xmlns="http://www.w3.org/2000/svg" viewBox="0 0 385.2 295.05">
  <defs>
    <style>
      .cls-1 {
        fill: #181818;
      }
    </style>
  </defs>
  <g id="Capa_1-2" data-name="Capa 1">
    <path class="cls-1" d="m385.2,0v3.09c-.62,2.71-1.36,5.39-1.86,8.12-14.87,81.17-29.75,162.33-44.45,243.53-.76,4.18-2.46,5.49-6.4,5.87-15.61,1.52-31.19,3.38-46.79,5-40.86,4.24-81.73,8.35-122.58,12.63-38.88,4.07-77.75,8.23-116.61,12.48-10.87,1.19-21.68,2.87-32.52,4.33h-6.19C5.22,196.85,2.61,98.65,0,0h385.2Zm-61.23,47.01h-157.32c1.53,9.11,2.73,17.74,4.65,26.2.35,1.53,3.6,3.28,5.61,3.4,6.86.42,13.76.16,21.07.16.53,11.72.79,22.71,1.61,33.67.43,5.67-1.86,6.99-7.06,7.02-8.41.06-16.81.87-25.38,1.37v24.59c50.36,1.37,100.11,2.72,150.73,4.1,2.03-33.48,4.04-66.69,6.09-100.5ZM71.31,231.29h18.42c3.01-16.49,5.99-32.9,8.98-49.3,4.11,14.73,6.76,29.29,9.86,43.75.45,2.09,2.96,5.13,4.75,5.31,6.56.64,13.22.25,20.88.25-3.9-17.55-7.39-34-11.22-50.37q-8.42-35.99,5.36-69.73c1.8-4.42,3.94-6.31,8.91-6.21,15.9.31,31.82.12,48.06.12.9-6.84,1.51-11.51,2.13-16.2-1.54-.43-2.26-.82-2.97-.81-22.66.24-45.32.41-67.97,1-2.04.05-4.84,2.43-5.87,4.44-3.67,7.22-6.72,14.74-10.39,23.04-3.7-8.48-6.74-15.82-10.13-22.98-.87-1.83-2.81-4.39-4.36-4.46-9.38-.42-18.79-.21-28.21-.21v89.66h19.91v-56.25c3.09,4.16,5,8.54,7.14,12.81,3.05,6.08,4.29,11.88,2.66,19.05-5.79,25.44-10.64,51.08-15.94,77.1Zm29.32-148.25c8.29.01,15.75-7.62,17.89-18.33,2-9.98-3.74-21.2-12.63-24.74-9.89-3.94-19.59,3.03-22.78,16.36-2.97,12.43,6.39,26.68,17.52,26.7Z"/>
  </g>
</svg>
