<?xml version="1.0" encoding="UTF-8"?>
<svg id="Capa_2" data-name="Capa 2" xmlns="http://www.w3.org/2000/svg" viewBox="0 0 290.04 406.14">
  <defs>
    <style>
      .cls-1 {
        fill: #181818;
      }
    </style>
  </defs>
  <g id="Capa_1-2" data-name="Capa 1">
    <path class="cls-1" d="m290.04,0v16.6c-.39.94-1.08,1.86-1.12,2.81-1.79,41.61-3.48,83.22-5.27,124.82-1.12,26.1-2.47,52.18-3.57,78.28-1.85,43.94-3.57,87.88-5.39,131.82-.71,17.15-1.58,34.29-2.39,51.79-1.92-.11-3.18-.01-4.35-.26-87.05-18.55-174.08-37.19-261.17-55.56C1.6,349.22-.01,347.64,0,342.24.18,247.34.13,152.45.13,57.55c0-2.06,0-4.13,0-6.3,6.73-1.16,12.8-2.18,18.85-3.27,34.42-6.19,68.84-12.4,103.26-18.59,39.43-7.09,78.84-14.23,118.29-21.2,16.47-2.91,33-5.47,49.51-8.19ZM94.25,64.42c7.6,14,14.12,27.58,22.1,40.23,5.86,9.28,6.5,18.91,4.63,28.68-8.31,43.51-17.23,86.9-25.66,130.38-.61,3.16.03,7.24,1.62,10.03,11.74,20.66,23.87,41.11,35.9,61.61,1,1.7,2.16,3.3,3.28,5,.75-.69,1.15-.93,1.36-1.28,17.18-29.05,34.36-58.09,51.43-87.2.85-1.45,1.15-3.62.84-5.3-7.32-39.59-14.87-79.14-22.01-118.76-.78-4.31-2.74-5.71-6.34-6.4-7.06-1.36-14.12-2.76-21.18-4.15,7.38-1.05,14.63-.72,21.81-1.23,2.38-.17,5.53-1.93,6.74-3.92,8.26-13.6,16.11-27.46,24.03-41.26.67-1.17.91-2.58,1.42-4.05-33.24-.79-65.94-1.56-99.97-2.37Z"/>
  </g>
</svg>
