<?xml version="1.0" encoding="UTF-8"?>
<svg id="Capa_2" data-name="Capa 2" xmlns="http://www.w3.org/2000/svg" viewBox="0 0 294.14 346.43">
  <defs>
    <style>
      .cls-1 {
        fill: #181818;
      }
    </style>
  </defs>
  <g id="Capa_1-2" data-name="Capa 1">
    <path class="cls-1" d="m284.74,0h9.4c-.38,8.59-.85,17.17-1.13,25.76-.63,18.96-1.13,37.92-1.76,56.88-1.24,37.14-2.61,74.28-3.79,111.43-1.36,42.63-2.55,85.27-3.87,127.9-.25,8.14-.73,16.28-1.11,24.47-81.28-6.99-161.81-13.92-242.89-20.89C26.36,226.23,13.17,127.21,0,28.28c1.22-.45,1.75-.77,2.31-.83,25.65-2.47,51.3-4.96,76.96-7.36,26.64-2.49,53.3-4.81,79.95-7.34,31.1-2.96,62.19-6.02,93.27-9.13,10.76-1.08,21.5-2.41,32.25-3.62ZM93.36,46.09c0,20.61-.69,40.77.26,60.85.57,12.21,6.83,22.63,17.71,28.9,6.61,3.81,14.11,6.08,21.65,9.23,0,27.9-.12,56.49.12,85.08.04,4.98-1.31,7.67-6,9.76-10.42,4.65-20.51,10.01-30.74,15.08.1.31.2.62.3.92h87.74c-7.97-5.72-14.81-10.46-21.4-15.5-1.68-1.28-3.46-3.45-3.72-5.41-4.03-30.18-7.81-60.4-11.68-90.89.93-.31,1.8-.72,2.71-.89,23.63-4.4,35.36-21.14,35.5-45.99.08-14.89.02-29.78.02-44.66,0-2.08,0-4.15,0-6.48h-92.45Z"/>
  </g>
</svg>