<?xml version="1.0" encoding="UTF-8"?>
<svg id="Capa_2" data-name="Capa 2" xmlns="http://www.w3.org/2000/svg" viewBox="0 0 405 338">
  <defs>
    <style>
      .cls-1 {
        fill: #f6f6f6;
      }

      .cls-2 {
        fill: #181818;
      }
    </style>
  </defs>
  <g id="Capa_4" data-name="Capa 4">
    <polygon class="cls-1" points="364 316 33 338 0 17 405 0 364 316"/>
  </g>
  <g id="Capa_3" data-name="Capa 3">
    <path class="cls-2" d="m288.12,78.05H116.88c-16.92,0-30.64,13.72-30.64,30.63v107.1c0,16.92,13.72,30.63,30.64,30.63h171.24c16.91,0,30.63-13.71,30.63-30.63v-107.1c0-16.91-13.72-30.63-30.63-30.63Zm-58.12,91.57l-47.62,23.8c-5.5,2.75-11.96-1.24-11.96-7.38v-47.6c0-6.14,6.47-10.13,11.96-7.39l47.62,23.8c6.08,3.04,6.08,11.73,0,14.77Z"/>
  </g>
</svg>