<?xml version="1.0" encoding="UTF-8"?>
<svg id="Capa_2" data-name="Capa 2" xmlns="http://www.w3.org/2000/svg" viewBox="0 0 385 364.36">
  <defs>
    <style>
      .cls-1 {
        fill: #f6f6f6;
      }

      .cls-2 {
        fill: #181818;
      }
    </style>
  </defs>
  <g id="Capa_4" data-name="Capa 4">
    <polygon class="cls-1" points="359.76 364.36 15 352 0 0 385 19.36 359.76 364.36"/>
  </g>
  <g id="Capa_3" data-name="Capa 3">
    <path class="cls-2" d="m257.43,166.77l-3.31,26.58c-.56,4.44-4.32,7.78-8.78,7.78h-43.05v111.13c-4.54.41-9.14.62-13.79.62-10.4,0-20.55-1.04-30.36-3.02v-108.73h-33.11c-3.04,0-5.52-2.49-5.52-5.54v-33.26c0-3.05,2.48-5.54,5.52-5.54h33.11v-49.88c0-30.61,24.71-55.42,55.2-55.42h38.63c3.04,0,5.52,2.49,5.52,5.54v33.26c0,3.05-2.48,5.54-5.52,5.54h-27.6c-12.19,0-22.07,9.92-22.07,22.17v38.8h46.36c5.32,0,9.43,4.68,8.78,9.98Z"/>
  </g>
</svg>