<?xml version="1.0" encoding="UTF-8"?>
<svg id="Capa_2" data-name="Capa 2" xmlns="http://www.w3.org/2000/svg" viewBox="0 0 380.24 363">
  <defs>
    <style>
      .cls-1 {
        fill: #f6f6f6;
      }

      .cls-2 {
        fill: #181818;
      }
    </style>
  </defs>
  <g id="Capa_4" data-name="Capa 4">
    <polygon class="cls-1" points="362 342 17 363 0 0 380.24 20 362 342"/>
  </g>
  <g id="Capa_3" data-name="Capa 3">
    <path class="cls-2" d="m241.45,75.65h-107.81c-27.78,0-50.31,22.53-50.31,50.31v107.81c0,27.78,22.53,50.31,50.31,50.31h107.81c27.78,0,50.31-22.53,50.31-50.31v-107.81c0-27.78-22.53-50.31-50.31-50.31Zm32.34,154.52c0,19.84-16.1,35.94-35.94,35.94h-100.62c-19.84,0-35.94-16.1-35.94-35.94v-100.62c0-19.84,16.1-35.94,35.94-35.94h100.62c19.84,0,35.94,16.1,35.94,35.94v100.62Z"/>
    <path class="cls-2" d="m187.65,125.96c-29.75,0-53.9,24.15-53.9,53.9s24.15,53.9,53.9,53.9,53.9-24.15,53.9-53.9-24.15-53.9-53.9-53.9Zm0,89.84c-19.8,0-35.94-16.14-35.94-35.94s16.14-35.94,35.94-35.94,35.94,16.14,35.94,35.94-16.14,35.94-35.94,35.94Z"/>
    <circle class="cls-2" cx="245.15" cy="122.37" r="10.78"/>
  </g>
</svg>