<?xml version="1.0" encoding="UTF-8"?>
<svg id="Capa_2" data-name="Capa 2" xmlns="http://www.w3.org/2000/svg" viewBox="0 0 425 391.65">
  <defs>
    <style>
      .cls-1 {
        fill: #f6f6f6;
      }
    </style>
  </defs>
  <g id="Capa_1-2" data-name="Capa 1">
    <path class="cls-1" d="m425,49.87v4.99c-.29.36-.79.7-.83,1.09-1.05,10.89-2.06,21.79-3.07,32.68-1.78,19.15-3.48,38.31-5.34,57.46-2.48,25.57-5.13,51.12-7.6,76.68-2.15,22.28-4.13,44.58-6.24,66.86-2.62,27.56-5.27,55.13-7.96,82.68-.63,6.49-1.43,12.95-2.15,19.33-117.34-10.29-233.92-20.51-350.67-30.74-2.74-23.93-5.48-47.43-8.12-70.95-1.83-16.31-3.45-32.65-5.31-48.96-2.48-21.73-5.17-43.43-7.64-65.16-2.17-19.11-4.11-38.24-6.25-57.35-2.89-25.69-5.85-51.37-8.83-77.06C3.38,27.62,1.67,13.81,0,0h4.99c.39.28.75.77,1.16.82,14.8,1.73,29.6,3.42,44.4,5.11,15.97,1.82,31.94,3.6,47.9,5.47,21.05,2.47,42.08,5.04,63.13,7.5,15.96,1.87,31.94,3.58,47.9,5.45,21.21,2.48,42.41,5.07,63.62,7.54,18.26,2.13,36.53,4.12,54.79,6.26,21.54,2.51,43.08,5.09,64.61,7.68,10.84,1.3,21.67,2.69,32.51,4.04Zm-83.03,99.92c-.1-1.03-.03-1.55-.2-1.98-6.09-14.68-12.11-29.38-18.43-43.95-.62-1.44-3.04-2.87-4.7-2.97-9.43-.54-18.89-.71-28.34-.94-29.04-.71-58.08-1.43-87.13-2.06-24.25-.52-48.49-.97-72.74-1.34-10.73-.16-21.47-.03-32.65-.03,2.09,16.05,4.21,32.37,6.39,49.13,79.46,1.38,158.55,2.75,237.8,4.12Zm13.5,27.67c-2.47,0-4.41,0-6.36,0-74.47.04-148.93.08-223.4.16-3.31,0-6.63.61-9.91.44-2.96-.16-4.03,1.21-4.87,3.71-4.16,12.4-8.47,24.75-12.67,37.13-.33.98-.28,2.08-.45,3.4,1.42,0,2.41,0,3.4,0,55.82.37,111.65.77,167.47,1.09,23.1.13,46.21.13,69.31.04,1.66,0,4.46-.91,4.79-1.99,4.37-14.38,8.4-28.86,12.69-43.96Zm-263.2,118.68c77.76-.82,154.71-1.63,231.61-2.44.23-1.23.45-1.71.39-2.16-2.09-14.76-4.22-29.51-6.33-44.27-.38-2.67-1.94-3.24-4.49-3.25-14.6-.08-29.21-.51-43.81-.54-48.7-.1-97.4-.05-146.1-.16-3.03,0-4.73.83-6.15,3.67-6,12.01-12.32,23.86-18.47,35.8-2.17,4.2-4.22,8.47-6.65,13.36Z"/>
  </g>
</svg>