<?xml version="1.0" encoding="UTF-8"?>
<svg id="Capa_2" data-name="Capa 2" xmlns="http://www.w3.org/2000/svg" viewBox="0 0 275.34 300.77">
  <defs>
    <style>
      .cls-1 {
        fill: #fff;
        stroke: #1d1d1b;
        stroke-miterlimit: 10;
      }
    </style>
  </defs>
  <g id="Capa_1-2" data-name="Capa 1">
    <path class="cls-1" d="m3.09,300.25c-.84-.42-2.24-.68-2.39-1.28-.36-1.37-.11-2.89-.11-4.35V.51c2.71.06,5.43-.01,8.13.19,27.83,2.04,55.65,4.12,83.48,6.18,17.45,1.29,34.9,2.53,52.34,3.87,25.94,1.99,51.87,4.05,77.81,6.07,17.38,1.35,34.76,2.68,52.49,4.05-1.4,85.35-2.8,170.15-4.2,255-20.04,1.89-39.07,3.79-58.11,5.45-30.91,2.7-61.84,5.17-92.75,7.87-32.35,2.82-64.69,5.77-97.03,8.74-6.57.6-13.11,1.54-19.66,2.33Zm181.18-92.22c-4.22-9.84-8.42-18.84-11.9-28.11-1.7-4.51-4.01-5.11-8.41-4.58-26.57,3.2-53.17,6.05-79.76,9.02.67-2.14,2.2-3.18,3.61-4.36,19.36-16.21,38.64-32.51,58.12-48.58,3.06-2.52,4.04-4.46,2.1-8.22-2.75-5.34-4.79-11.05-7.19-16.58-3.33-7.67-6.72-15.32-10.25-23.35-6.59,5.86-12.52,11.12-18.44,16.39-25.71,22.91-51.39,45.86-77.18,68.68-2.78,2.46-3.37,4.48-1.81,7.95,5.63,12.52,11.04,25.13,16.26,37.83,1.47,3.57,3.2,5.09,7.28,4.7,19.28-1.84,38.58-3.41,57.87-5.03,22.82-1.92,45.65-3.78,69.7-5.77Zm31.57-91.51c-13.22,4.69-25.79,9.15-38.51,13.67,1.71,4.76,3.22,8.95,4.77,13.26,13.08-4.65,25.62-9.11,38.54-13.7-1.75-4.81-3.2-8.81-4.8-13.23Zm14.7,60.06c-13.68-3.16-26.56-6.13-39.92-9.22-1.07,4.67-2.06,8.98-3.15,13.74,13.37,3.1,26.25,6.08,39.7,9.19,1.14-4.64,2.17-8.79,3.38-13.71Zm-37.68-100.99c-4.16-3.08-7.61-5.63-11.25-8.33-8.27,10.95-16.3,21.57-24.58,32.54,3.84,2.88,7.4,5.54,11.21,8.4,8.27-10.95,16.28-21.56,24.62-32.61Z"/>
  </g>
</svg>