<?xml version="1.0" encoding="UTF-8"?>
<svg id="Capa_2" data-name="Capa 2" xmlns="http://www.w3.org/2000/svg" viewBox="0 0 513.36 535.06">
  <defs>
    <style>
      .cls-1 {
        fill: #f6f6f6;
      }
    </style>
  </defs>
  <g id="Capa_1-2" data-name="Capa 1">
    <path class="cls-1" d="m258.83,0c2.99,10.8,5.85,21.63,9,32.38,11.91,40.72,23.92,81.42,35.9,122.13.18.61.4,1.22.73,2.19,67.52-16.2,134.89-32.36,202.27-48.52.18.32.37.64.55.96-3.95,3.59-7.83,7.26-11.85,10.77-30.79,26.89-61.61,53.75-92.4,80.63-10.77,9.4-21.32,19.05-32.4,28.05-2.16,1.76-6.65,2.07-9.56,1.26-28.79-7.99-57.5-16.28-86.19-24.66-13.45-3.93-26.79-8.21-40.18-12.34-.19.4-.39.79-.58,1.19,93.09,47.74,186.18,95.48,279.26,143.22l-.38,1.76c-67.25,2.27-134.49,4.53-202.4,6.82,6.04,63.5,15.59,125.73,18.6,188.56-.44.22-.89.44-1.33.67-4.93-5.87-10.11-11.56-14.75-17.65-25.02-32.87-49.69-66.01-74.92-98.72-15.81-20.49-32.45-40.34-48.59-60.59-3.1-3.89-6.39-4.36-11.1-3.38-35.09,7.35-70.22,14.49-105.38,21.54-21.87,4.38-43.79,8.48-65.7,12.67-2.1.4-4.24.58-7.42,1,1.5-1.83,2.46-3.17,3.59-4.37,22.71-24.14,47.68-45.85,72.97-67.17,16.75-14.12,33.9-27.77,50.69-41.84,4.68-3.92,8.76-3.9,14.33-1.6,34.97,14.45,70.11,28.49,105.2,42.66.71.29,1.42.56,2.49.18-79.34-57.62-158.68-115.24-238.02-172.86l.3-1.19c1.87,0,3.75-.08,5.61.01,24.04,1.25,48.09,2.48,72.13,3.82,17.74.98,35.47,2.02,53.2,3.2,9.43.63,18.87,1.3,28.23,2.55,4.14.56,6.51-.47,8.47-3.99,8.69-15.62,17.91-30.97,26.21-46.8,17.22-32.85,33.99-65.93,50.92-98.93.59-1.16,1.01-2.4,1.51-3.61.33,0,.67,0,1,0Z"/>
  </g>
</svg>