<?xml version="1.0" encoding="UTF-8"?>
<svg id="Capa_2" data-name="Capa 2" xmlns="http://www.w3.org/2000/svg" viewBox="0 0 360.39 323.26">
  <defs>
    <style>
      .cls-1 {
        fill: #181818;
      }
    </style>
  </defs>
  <g id="Capa_1-2" data-name="Capa 1">
    <path class="cls-1" d="m35.91,0h7.18c.65.34,1.28.94,1.96.99,24.19,1.99,48.38,3.95,72.57,5.88,31.73,2.54,63.46,5.02,95.19,7.59,39.46,3.19,78.92,6.42,118.38,9.7,9.62.8,19.22,1.83,29.2,2.79-18.44,99.01-36.78,197.47-55.19,296.31-15.52-1.44-30.34-2.79-45.16-4.18-27.72-2.62-55.43-5.29-83.15-7.88-25.55-2.39-51.1-4.73-76.65-7.07-22.77-2.09-45.55-4.08-68.31-6.25C21.27,296.85,10.64,295.52,0,294.33c0-.4,0-.8,0-1.2.36-.42.98-.81,1.03-1.26,2.86-24.08,5.69-48.17,8.5-72.26,2.93-25.08,5.84-50.16,8.77-75.24,4.28-36.54,8.52-73.08,12.89-109.61C32.58,23.16,34.33,11.59,35.91,0Zm171.23,198.2h28.52v-23.42c8.74,0,16.91.66,24.92-.14,15.85-1.59,27.33-13.97,28.01-29.13.82-18.27-8.33-30.92-25.38-34.21-5.79-1.11-11.84-1.09-17.77-1.17-12.68-.16-25.36-.05-38.3-.05v88.12Zm-84.88-31.32h-1.22c-4.84-17.4-9.63-34.82-14.63-52.18-.5-1.73-2.27-4.36-3.54-4.41-9.45-.37-18.92-.2-29.06-.2,8.98,29.15,17.63,57.41,26.54,85.58.42,1.33,3.1,2.69,4.77,2.75,7.77.29,15.56-.13,23.32.23,4.32.2,6.3-1.15,7.5-5.39,3.96-13.94,8.34-27.77,12.59-41.63,4.18-13.64,8.4-27.26,12.81-41.55-4.35,0-7.91,0-11.47,0-11.73,0-11.66.02-14.78,11.22-4.23,15.21-8.56,30.39-12.85,45.58Zm72.7-56.44h-27.26v87.75h27.26v-87.75Z"/>
  </g>
</svg>
